<svg id="visual" viewBox="0 0 900 600" width="900" height="600" xmlns="http://www.w3.org/2000/svg" xmlns:xlink="http://www.w3.org/1999/xlink" version="1.1"><rect x="0" y="0" width="900" height="600" fill="#090909"></rect><defs><linearGradient id="grad1_0" x1="33.3%" y1="0%" x2="100%" y2="100%"><stop offset="20%" stop-color="#090909" stop-opacity="1"></stop><stop offset="80%" stop-color="#090909" stop-opacity="1"></stop></linearGradient></defs><defs><linearGradient id="grad2_0" x1="0%" y1="0%" x2="66.7%" y2="100%"><stop offset="20%" stop-color="#090909" stop-opacity="1"></stop><stop offset="80%" stop-color="#090909" stop-opacity="1"></stop></linearGradient></defs><g transform="translate(900, 0)"><path d="M0 351.5C-43.4 343.3 -86.9 335.1 -132.8 320.6C-178.7 306.1 -227.1 285.4 -248.6 248.6C-270 211.8 -264.5 158.9 -277.2 114.8C-289.8 70.7 -320.7 35.3 -351.5 0L0 0Z" fill="#EEEEEE"></path></g><g transform="translate(0, 600)"><path d="M0 -351.5C45 -346.3 90 -341.1 134.5 -324.8C179.1 -308.5 223.1 -281.1 242.5 -242.5C261.9 -204 256.6 -154.4 270.7 -112.1C284.8 -69.9 318.1 -34.9 351.5 0L0 0Z" fill="#EEEEEE"></path></g></svg>