<svg id="visual" viewBox="0 0 900 600" width="900" height="600" xmlns="http://www.w3.org/2000/svg" xmlns:xlink="http://www.w3.org/1999/xlink" version="1.1"><rect x="0" y="0" width="900" height="600" fill="#1d1d1d"></rect><path d="M0 449L37.5 452.8C75 456.7 150 464.3 225 460.7C300 457 375 442 450 432.5C525 423 600 419 675 425.8C750 432.7 825 450.3 862.5 459.2L900 468L900 601L862.5 601C825 601 750 601 675 601C600 601 525 601 450 601C375 601 300 601 225 601C150 601 75 601 37.5 601L0 601Z" fill="#f7f7f7"></path><path d="M0 494L37.5 492.2C75 490.3 150 486.7 225 479.3C300 472 375 461 450 465.8C525 470.7 600 491.3 675 499.8C750 508.3 825 504.7 862.5 502.8L900 501L900 601L862.5 601C825 601 750 601 675 601C600 601 525 601 450 601C375 601 300 601 225 601C150 601 75 601 37.5 601L0 601Z" fill="#d5d7dd"></path><path d="M0 500L37.5 500.5C75 501 150 502 225 500.2C300 498.3 375 493.7 450 496.5C525 499.3 600 509.7 675 518.5C750 527.3 825 534.7 862.5 538.3L900 542L900 601L862.5 601C825 601 750 601 675 601C600 601 525 601 450 601C375 601 300 601 225 601C150 601 75 601 37.5 601L0 601Z" fill="#b3b8c4"></path><path d="M0 537L37.5 536.7C75 536.3 150 535.7 225 541.5C300 547.3 375 559.7 450 559.7C525 559.7 600 547.3 675 547.7C750 548 825 561 862.5 567.5L900 574L900 601L862.5 601C825 601 750 601 675 601C600 601 525 601 450 601C375 601 300 601 225 601C150 601 75 601 37.5 601L0 601Z" fill="#929aab"></path></svg>